<!-- Generated by IcoMoon.io -->
<svg version="1.1" xmlns="http://www.w3.org/2000/svg" width="64" height="64" viewBox="0 0 64 64">
<title>gamepad</title>
<path d="M51.949 62c5.551 0 10.051-4.5 10.051-10.051v0-14.592c0-8.284-6.716-15-15-15v0h-12v-8.357h21c2.208-0.003 3.997-1.792 4-4v-8h-6v6h-21c-2.208 0.003-3.997 1.792-4 4v10.357h-12c-8.284 0-15 6.716-15 15v0 14.592c0 5.551 4.5 10.051 10.051 10.051v0h0.242c0 0 0 0 0 0 3.096 0 5.865-1.4 7.709-3.601l0.013-0.016 7.701-10.312h8.571l7.697 10.006c1.856 2.395 4.733 3.923 7.967 3.923v0zM24 40.625h-4.375v4.375h-5.25v-4.375h-4.375v-5.25h4.375v-4.375h5.25v4.375h4.375zM42.625 40.625h-5.25v-5.25h5.25zM49.625 47.625h-5.25v-5.25h5.25zM49.625 33.625h-5.25v-5.25h5.25zM51.375 35.375h5.25v5.25h-5.25z"></path>
</svg>
